<?xml version="1.0" standalone="no"?>
<!DOCTYPE svg PUBLIC "-//W3C//DTD SVG 20010904//EN"
 "http://www.w3.org/TR/2001/REC-SVG-20010904/DTD/svg10.dtd">
<svg version="1.0" xmlns="http://www.w3.org/2000/svg"
 width="342.000000pt" height="342.000000pt" viewBox="0 0 342.000000 342.000000"
 preserveAspectRatio="xMidYMid meet">
<metadata>
Created by potrace 1.11, written by Peter Selinger 2001-2013
</metadata>
<g transform="translate(0.000000,342.000000) scale(0.100000,-0.100000)"
fill="#000000" stroke="none">
<path d="M0 1710 l0 -1710 1710 0 1710 0 0 1710 0 1710 -1710 0 -1710 0 0
-1710z m2503 1340 c54 -29 184 -138 189 -158 7 -26 -8 -59 -30 -67 -11 -3 -46
3 -77 14 -69 24 -88 19 -142 -43 -134 -152 -315 -568 -419 -965 -34 -128 -94
-402 -94 -429 0 -9 11 -4 31 12 33 28 58 33 77 14 20 -20 14 -39 -38 -128 -50
-86 -89 -177 -110 -260 -16 -62 -36 -90 -64 -90 -37 0 -119 60 -140 103 -18
38 -18 40 4 160 106 573 269 1108 455 1492 95 197 177 311 250 349 40 21 63
20 108 -4z m-739 -89 c35 -17 92 -52 125 -76 49 -36 61 -50 61 -73 0 -15 -5
-33 -12 -40 -18 -18 -70 -14 -123 9 -57 25 -106 21 -142 -13 -34 -32 -98 -143
-156 -273 -50 -110 -187 -459 -187 -474 0 -5 51 -14 113 -21 133 -15 147 -21
147 -60 0 -50 -17 -56 -267 -86 -29 -3 -55 -9 -57 -12 -16 -26 -149 -482 -201
-687 -84 -334 -118 -520 -120 -666 -1 -64 -5 -122 -9 -128 -12 -19 -59 -12
-111 18 -71 41 -96 72 -102 123 -10 89 134 668 297 1193 22 72 40 133 40 138
0 4 -15 7 -32 7 -60 0 -79 11 -99 54 -27 60 -13 75 101 106 l92 25 73 200
c181 500 278 693 379 757 43 26 109 19 190 -21z m534 -1686 c51 -22 57 -53 26
-143 -30 -92 -67 -157 -96 -173 -26 -14 -142 -6 -163 11 -21 17 -19 41 9 91
13 24 36 81 51 127 17 50 36 88 49 98 23 16 66 12 124 -11z"/>
</g>
</svg>
