<?xml version="1.0" encoding="utf-8"?>
<!-- Generator: Adobe Illustrator 15.0.2, SVG Export Plug-In . SVG Version: 6.00 Build 0)  -->
<!DOCTYPE svg PUBLIC "-//W3C//DTD SVG 1.1//EN" "http://www.w3.org/Graphics/SVG/1.1/DTD/svg11.dtd">
<svg version="1.1" id="Calque_1" xmlns="http://www.w3.org/2000/svg" xmlns:xlink="http://www.w3.org/1999/xlink" x="0px" y="0px"
	 width="39.8px" height="35.3px" viewBox="0 0 39.8 35.3" enable-background="new 0 0 39.8 35.3" xml:space="preserve">
<g>
	<path fill="#334368" d="M18.4,27.6c-1.5,0-2.7-0.4-3.7-1.1s-1.5-1.9-1.5-3.6c0-1.9,0.7-3.4,2-4.6s3.3-2.3,6-3.3
		c0.7-0.3,1.9-0.7,3.6-1.3s3.3-1.2,4.9-1.8c1.5-0.6,2.9-1.1,3.9-1.7c1.6-0.8,2.8-1.6,3.7-2.4s1.3-1.8,1.3-2.9c0-0.8-0.2-1.5-0.6-2.1
		s-1-1.1-1.7-1.5s-1.5-0.5-2.4-0.5c-0.8,0-1.4,0.1-1.5,0.4c0.3,0.2,0.6,0.4,0.8,0.8s0.3,0.7,0.3,1.1c0,0.5-0.1,0.9-0.4,1.4
		s-0.7,0.8-1.2,1c-0.5,0.2-1,0.4-1.5,0.4c-0.6,0-1.2-0.2-1.6-0.5s-0.6-0.9-0.6-1.5c0-0.7,0.2-1.2,0.7-1.8s1-0.9,1.7-1.3
		C31.4,0.2,32.6,0,33.8,0c1.8,0,3.3,0.5,4.4,1.4s1.6,2.3,1.6,4.1c0,1.6-0.5,3.1-1.4,4.3S36,12.2,34,13.2c-1.4,0.7-4,1.7-7.7,3.1
		c2.3,2,3.5,4.4,3.5,7.2c0,2.1-0.6,4.1-1.9,5.9s-3.1,3.3-5.5,4.3s-5.3,1.6-8.5,1.6c-2.8,0-5.3-0.4-7.3-1.2s-3.7-2-4.8-3.5
		S0,27.3,0,25.2c0-1.9,0.4-3.6,1.3-5.3s2.1-3,3.7-4.2s3.3-2,5.3-2.6c-1.1-0.6-1.9-1.3-2.5-2.3S7,8.9,7,7.8c0-1.4,0.5-2.6,1.4-3.6
		s2.2-1.8,3.6-2.4S15,1,16.5,1c1.2,0,2.2,0.2,3.1,0.5s1.6,0.8,2.1,1.5s0.7,1.4,0.7,2.2c0,0.8-0.2,1.4-0.6,2s-0.9,0.9-1.5,1.2
		S19,8.7,18.3,8.7l0.1-0.9c0.9,0,1.6-0.2,2.2-0.7s0.8-1.1,0.8-1.9c0-1.1-0.4-1.9-1.3-2.6s-2-1-3.3-1c-1.3,0-2.5,0.3-3.5,0.9
		s-1.8,1.5-2.4,2.6S9.9,7.5,9.9,8.9c0,1.5,0.4,2.8,1.1,4c1.1-0.2,2.1-0.3,3-0.3c1.2,0,1.7,0.3,1.7,1c0,0.3-0.1,0.6-0.4,0.8
		s-0.6,0.2-1.1,0.2c-0.8,0-1.9-0.4-3.3-1.1c-1.5,0.4-2.7,1.1-3.8,2s-2,2-2.6,3.3S3.6,21.6,3.6,23c0,1.9,0.5,3.5,1.5,4.8
		s2.5,2.3,4.3,3s3.9,1,6.2,1c2.5,0,4.7-0.4,6.7-1.1s3.6-1.8,4.7-3.1s1.7-2.9,1.7-4.7c0-1.2-0.3-2.3-0.8-3.4s-1.3-2.1-2.4-2.9
		c-3.3,1.2-5.3,2-6.1,2.3c-1.4,0.6-2.6,1.2-3.6,1.9s-1.4,1.7-1.4,2.8c0,1,0.4,1.8,1.2,2.3s1.8,0.9,2.9,0.9c1.3,0,2.3-0.3,3.1-0.9
		s1.4-1.3,1.8-1.9l0.6,0.4C22.8,26.5,20.9,27.6,18.4,27.6z"/>
</g>
</svg>
